<svg width="232" height="62" viewBox="0 0 232 62" fill="none" xmlns="http://www.w3.org/2000/svg">
<g filter="url(#filter0_d_115_3506)">
<mask id="path-1-outside-1_115_3506" maskUnits="userSpaceOnUse" x="3" y="26" width="144" height="20" fill="black">
<rect fill="white" x="3" y="26" width="144" height="20"/>
<path d="M4.11364 27.5455H6.63636L12.5682 42.0341H12.7727L18.7045 27.5455H21.2273V45H19.25V31.7386H19.0795L13.625 45H11.7159L6.26136 31.7386H6.09091V45H4.11364V27.5455ZM25.1925 45V31.9091H27.2038V45H25.1925ZM26.2152 29.7273C25.8232 29.7273 25.4851 29.5938 25.201 29.3267C24.9226 29.0597 24.7834 28.7386 24.7834 28.3636C24.7834 27.9886 24.9226 27.6676 25.201 27.4006C25.4851 27.1335 25.8232 27 26.2152 27C26.6072 27 26.9425 27.1335 27.2209 27.4006C27.505 27.6676 27.647 27.9886 27.647 28.3636C27.647 28.7386 27.505 29.0597 27.2209 29.3267C26.9425 29.5938 26.6072 29.7273 26.2152 29.7273ZM35.831 45.2727C34.7401 45.2727 33.777 44.9972 32.9418 44.446C32.1065 43.8892 31.4531 43.1051 30.9815 42.0938C30.5099 41.0767 30.2741 39.875 30.2741 38.4886C30.2741 37.1136 30.5099 35.9205 30.9815 34.9091C31.4531 33.8977 32.1094 33.1165 32.9503 32.5653C33.7912 32.0142 34.7628 31.7386 35.8651 31.7386C36.7173 31.7386 37.3906 31.8807 37.8849 32.1648C38.3849 32.4432 38.7656 32.7614 39.027 33.1193C39.294 33.4716 39.5014 33.7614 39.6491 33.9886H39.8196V27.5455H41.831V45H39.8878V42.9886H39.6491C39.5014 43.2273 39.2912 43.5284 39.0185 43.892C38.7457 44.25 38.3565 44.571 37.8509 44.8551C37.3452 45.1335 36.6719 45.2727 35.831 45.2727ZM36.1037 43.4659C36.9105 43.4659 37.5923 43.2557 38.1491 42.8352C38.706 42.4091 39.1293 41.821 39.419 41.071C39.7088 40.3153 39.8537 39.4432 39.8537 38.4545C39.8537 37.4773 39.7116 36.6222 39.4276 35.8892C39.1435 35.1506 38.723 34.5767 38.1662 34.1676C37.6094 33.7528 36.9219 33.5455 36.1037 33.5455C35.2514 33.5455 34.5412 33.7642 33.973 34.2017C33.4105 34.6335 32.9872 35.2216 32.7031 35.9659C32.4247 36.7045 32.2855 37.5341 32.2855 38.4545C32.2855 39.3864 32.4276 40.233 32.7116 40.9943C33.0014 41.75 33.4276 42.3523 33.9901 42.8011C34.5582 43.2443 35.2628 43.4659 36.1037 43.4659ZM50.7372 45.2727C49.6463 45.2727 48.6832 44.9972 47.848 44.446C47.0128 43.8892 46.3594 43.1051 45.8878 42.0938C45.4162 41.0767 45.1804 39.875 45.1804 38.4886C45.1804 37.1136 45.4162 35.9205 45.8878 34.9091C46.3594 33.8977 47.0156 33.1165 47.8565 32.5653C48.6974 32.0142 49.669 31.7386 50.7713 31.7386C51.6236 31.7386 52.2969 31.8807 52.7912 32.1648C53.2912 32.4432 53.6719 32.7614 53.9332 33.1193C54.2003 33.4716 54.4077 33.7614 54.5554 33.9886H54.7259V27.5455H56.7372V45H54.794V42.9886H54.5554C54.4077 43.2273 54.1974 43.5284 53.9247 43.892C53.652 44.25 53.2628 44.571 52.7571 44.8551C52.2514 45.1335 51.5781 45.2727 50.7372 45.2727ZM51.0099 43.4659C51.8168 43.4659 52.4986 43.2557 53.0554 42.8352C53.6122 42.4091 54.0355 41.821 54.3253 41.071C54.6151 40.3153 54.7599 39.4432 54.7599 38.4545C54.7599 37.4773 54.6179 36.6222 54.3338 35.8892C54.0497 35.1506 53.6293 34.5767 53.0724 34.1676C52.5156 33.7528 51.8281 33.5455 51.0099 33.5455C50.1577 33.5455 49.4474 33.7642 48.8793 34.2017C48.3168 34.6335 47.8935 35.2216 47.6094 35.9659C47.331 36.7045 47.1918 37.5341 47.1918 38.4545C47.1918 39.3864 47.3338 40.233 47.6179 40.9943C47.9077 41.75 48.3338 42.3523 48.8963 42.8011C49.4645 43.2443 50.169 43.4659 51.0099 43.4659ZM62.7116 27.5455V45H60.7003V27.5455H62.7116ZM71.8842 45.2727C70.6229 45.2727 69.5348 44.9943 68.62 44.4375C67.7109 43.875 67.0092 43.0909 66.5149 42.0852C66.0263 41.0739 65.782 39.8977 65.782 38.5568C65.782 37.2159 66.0263 36.0341 66.5149 35.0114C67.0092 33.983 67.6967 33.1818 68.5774 32.608C69.4638 32.0284 70.4979 31.7386 71.6797 31.7386C72.3615 31.7386 73.0348 31.8523 73.6996 32.0795C74.3643 32.3068 74.9695 32.6761 75.5149 33.1875C76.0604 33.6932 76.495 34.3636 76.8189 35.1989C77.1428 36.0341 77.3047 37.0625 77.3047 38.2841V39.1364H67.2138V37.3977H75.2592C75.2592 36.6591 75.1115 36 74.8161 35.4205C74.5263 34.8409 74.1115 34.3835 73.5717 34.0483C73.0376 33.7131 72.407 33.5455 71.6797 33.5455C70.8786 33.5455 70.1854 33.7443 69.6001 34.142C69.0206 34.5341 68.5746 35.0455 68.2621 35.6761C67.9496 36.3068 67.7933 36.983 67.7933 37.7045V38.8636C67.7933 39.8523 67.9638 40.6903 68.3047 41.3778C68.6513 42.0597 69.1314 42.5795 69.745 42.9375C70.3587 43.2898 71.0717 43.4659 71.8842 43.4659C72.4126 43.4659 72.8899 43.392 73.3161 43.2443C73.7479 43.0909 74.12 42.8636 74.4325 42.5625C74.745 42.2557 74.9865 41.875 75.157 41.4205L77.1001 41.9659C76.8956 42.625 76.5518 43.2045 76.0689 43.7045C75.5859 44.1989 74.9893 44.5852 74.2791 44.8636C73.5689 45.1364 72.7706 45.2727 71.8842 45.2727ZM100.887 27.5455H103.41L109.342 42.0341H109.546L115.478 27.5455H118.001V45H116.023V31.7386H115.853L110.398 45H108.489L103.035 31.7386H102.864V45H100.887V27.5455ZM125.818 45.3068C124.989 45.3068 124.236 45.1506 123.56 44.8381C122.884 44.5199 122.347 44.0625 121.949 43.4659C121.551 42.8636 121.352 42.1364 121.352 41.2841C121.352 40.5341 121.5 39.9261 121.795 39.4602C122.091 38.9886 122.486 38.6193 122.98 38.3523C123.474 38.0852 124.02 37.8864 124.616 37.7557C125.219 37.6193 125.824 37.5114 126.432 37.4318C127.227 37.3295 127.872 37.2528 128.366 37.2017C128.866 37.1449 129.23 37.0511 129.457 36.9205C129.69 36.7898 129.807 36.5625 129.807 36.2386V36.1705C129.807 35.3295 129.577 34.6761 129.116 34.2102C128.662 33.7443 127.972 33.5114 127.045 33.5114C126.085 33.5114 125.332 33.7216 124.787 34.142C124.241 34.5625 123.858 35.0114 123.636 35.4886L121.727 34.8068C122.068 34.0114 122.523 33.392 123.091 32.9489C123.665 32.5 124.29 32.1875 124.966 32.0114C125.648 31.8295 126.318 31.7386 126.977 31.7386C127.398 31.7386 127.881 31.7898 128.426 31.892C128.977 31.9886 129.509 32.1903 130.02 32.4972C130.537 32.804 130.966 33.267 131.307 33.8864C131.648 34.5057 131.818 35.3352 131.818 36.375V45H129.807V43.2273H129.705C129.568 43.5114 129.341 43.8153 129.023 44.1392C128.705 44.4631 128.281 44.7386 127.753 44.9659C127.224 45.1932 126.58 45.3068 125.818 45.3068ZM126.125 43.5C126.92 43.5 127.591 43.3438 128.136 43.0312C128.688 42.7188 129.102 42.3153 129.381 41.821C129.665 41.3267 129.807 40.8068 129.807 40.2614V38.4205C129.722 38.5227 129.534 38.6165 129.244 38.7017C128.96 38.7812 128.631 38.8523 128.256 38.9148C127.886 38.9716 127.526 39.0227 127.173 39.0682C126.827 39.108 126.545 39.142 126.33 39.1705C125.807 39.2386 125.318 39.3494 124.864 39.5028C124.415 39.6506 124.051 39.875 123.773 40.1761C123.5 40.4716 123.364 40.875 123.364 41.3864C123.364 42.0852 123.622 42.6136 124.139 42.9716C124.662 43.3239 125.324 43.5 126.125 43.5ZM137.501 37.125V45H135.489V31.9091H137.433V33.9545H137.603C137.91 33.2898 138.376 32.7557 139.001 32.3523C139.626 31.9432 140.433 31.7386 141.421 31.7386C142.308 31.7386 143.083 31.9205 143.748 32.2841C144.413 32.642 144.93 33.1875 145.299 33.9205C145.668 34.6477 145.853 35.5682 145.853 36.6818V45H143.842V36.8182C143.842 35.7898 143.575 34.9886 143.04 34.4148C142.506 33.8352 141.773 33.5455 140.842 33.5455C140.2 33.5455 139.626 33.6847 139.12 33.9631C138.62 34.2415 138.225 34.6477 137.935 35.1818C137.646 35.7159 137.501 36.3636 137.501 37.125Z"/>
</mask>
<path d="M4.11364 27.5455H6.63636L12.5682 42.0341H12.7727L18.7045 27.5455H21.2273V45H19.25V31.7386H19.0795L13.625 45H11.7159L6.26136 31.7386H6.09091V45H4.11364V27.5455ZM25.1925 45V31.9091H27.2038V45H25.1925ZM26.2152 29.7273C25.8232 29.7273 25.4851 29.5938 25.201 29.3267C24.9226 29.0597 24.7834 28.7386 24.7834 28.3636C24.7834 27.9886 24.9226 27.6676 25.201 27.4006C25.4851 27.1335 25.8232 27 26.2152 27C26.6072 27 26.9425 27.1335 27.2209 27.4006C27.505 27.6676 27.647 27.9886 27.647 28.3636C27.647 28.7386 27.505 29.0597 27.2209 29.3267C26.9425 29.5938 26.6072 29.7273 26.2152 29.7273ZM35.831 45.2727C34.7401 45.2727 33.777 44.9972 32.9418 44.446C32.1065 43.8892 31.4531 43.1051 30.9815 42.0938C30.5099 41.0767 30.2741 39.875 30.2741 38.4886C30.2741 37.1136 30.5099 35.9205 30.9815 34.9091C31.4531 33.8977 32.1094 33.1165 32.9503 32.5653C33.7912 32.0142 34.7628 31.7386 35.8651 31.7386C36.7173 31.7386 37.3906 31.8807 37.8849 32.1648C38.3849 32.4432 38.7656 32.7614 39.027 33.1193C39.294 33.4716 39.5014 33.7614 39.6491 33.9886H39.8196V27.5455H41.831V45H39.8878V42.9886H39.6491C39.5014 43.2273 39.2912 43.5284 39.0185 43.892C38.7457 44.25 38.3565 44.571 37.8509 44.8551C37.3452 45.1335 36.6719 45.2727 35.831 45.2727ZM36.1037 43.4659C36.9105 43.4659 37.5923 43.2557 38.1491 42.8352C38.706 42.4091 39.1293 41.821 39.419 41.071C39.7088 40.3153 39.8537 39.4432 39.8537 38.4545C39.8537 37.4773 39.7116 36.6222 39.4276 35.8892C39.1435 35.1506 38.723 34.5767 38.1662 34.1676C37.6094 33.7528 36.9219 33.5455 36.1037 33.5455C35.2514 33.5455 34.5412 33.7642 33.973 34.2017C33.4105 34.6335 32.9872 35.2216 32.7031 35.9659C32.4247 36.7045 32.2855 37.5341 32.2855 38.4545C32.2855 39.3864 32.4276 40.233 32.7116 40.9943C33.0014 41.75 33.4276 42.3523 33.9901 42.8011C34.5582 43.2443 35.2628 43.4659 36.1037 43.4659ZM50.7372 45.2727C49.6463 45.2727 48.6832 44.9972 47.848 44.446C47.0128 43.8892 46.3594 43.1051 45.8878 42.0938C45.4162 41.0767 45.1804 39.875 45.1804 38.4886C45.1804 37.1136 45.4162 35.9205 45.8878 34.9091C46.3594 33.8977 47.0156 33.1165 47.8565 32.5653C48.6974 32.0142 49.669 31.7386 50.7713 31.7386C51.6236 31.7386 52.2969 31.8807 52.7912 32.1648C53.2912 32.4432 53.6719 32.7614 53.9332 33.1193C54.2003 33.4716 54.4077 33.7614 54.5554 33.9886H54.7259V27.5455H56.7372V45H54.794V42.9886H54.5554C54.4077 43.2273 54.1974 43.5284 53.9247 43.892C53.652 44.25 53.2628 44.571 52.7571 44.8551C52.2514 45.1335 51.5781 45.2727 50.7372 45.2727ZM51.0099 43.4659C51.8168 43.4659 52.4986 43.2557 53.0554 42.8352C53.6122 42.4091 54.0355 41.821 54.3253 41.071C54.6151 40.3153 54.7599 39.4432 54.7599 38.4545C54.7599 37.4773 54.6179 36.6222 54.3338 35.8892C54.0497 35.1506 53.6293 34.5767 53.0724 34.1676C52.5156 33.7528 51.8281 33.5455 51.0099 33.5455C50.1577 33.5455 49.4474 33.7642 48.8793 34.2017C48.3168 34.6335 47.8935 35.2216 47.6094 35.9659C47.331 36.7045 47.1918 37.5341 47.1918 38.4545C47.1918 39.3864 47.3338 40.233 47.6179 40.9943C47.9077 41.75 48.3338 42.3523 48.8963 42.8011C49.4645 43.2443 50.169 43.4659 51.0099 43.4659ZM62.7116 27.5455V45H60.7003V27.5455H62.7116ZM71.8842 45.2727C70.6229 45.2727 69.5348 44.9943 68.62 44.4375C67.7109 43.875 67.0092 43.0909 66.5149 42.0852C66.0263 41.0739 65.782 39.8977 65.782 38.5568C65.782 37.2159 66.0263 36.0341 66.5149 35.0114C67.0092 33.983 67.6967 33.1818 68.5774 32.608C69.4638 32.0284 70.4979 31.7386 71.6797 31.7386C72.3615 31.7386 73.0348 31.8523 73.6996 32.0795C74.3643 32.3068 74.9695 32.6761 75.5149 33.1875C76.0604 33.6932 76.495 34.3636 76.8189 35.1989C77.1428 36.0341 77.3047 37.0625 77.3047 38.2841V39.1364H67.2138V37.3977H75.2592C75.2592 36.6591 75.1115 36 74.8161 35.4205C74.5263 34.8409 74.1115 34.3835 73.5717 34.0483C73.0376 33.7131 72.407 33.5455 71.6797 33.5455C70.8786 33.5455 70.1854 33.7443 69.6001 34.142C69.0206 34.5341 68.5746 35.0455 68.2621 35.6761C67.9496 36.3068 67.7933 36.983 67.7933 37.7045V38.8636C67.7933 39.8523 67.9638 40.6903 68.3047 41.3778C68.6513 42.0597 69.1314 42.5795 69.745 42.9375C70.3587 43.2898 71.0717 43.4659 71.8842 43.4659C72.4126 43.4659 72.8899 43.392 73.3161 43.2443C73.7479 43.0909 74.12 42.8636 74.4325 42.5625C74.745 42.2557 74.9865 41.875 75.157 41.4205L77.1001 41.9659C76.8956 42.625 76.5518 43.2045 76.0689 43.7045C75.5859 44.1989 74.9893 44.5852 74.2791 44.8636C73.5689 45.1364 72.7706 45.2727 71.8842 45.2727ZM100.887 27.5455H103.41L109.342 42.0341H109.546L115.478 27.5455H118.001V45H116.023V31.7386H115.853L110.398 45H108.489L103.035 31.7386H102.864V45H100.887V27.5455ZM125.818 45.3068C124.989 45.3068 124.236 45.1506 123.56 44.8381C122.884 44.5199 122.347 44.0625 121.949 43.4659C121.551 42.8636 121.352 42.1364 121.352 41.2841C121.352 40.5341 121.5 39.9261 121.795 39.4602C122.091 38.9886 122.486 38.6193 122.98 38.3523C123.474 38.0852 124.02 37.8864 124.616 37.7557C125.219 37.6193 125.824 37.5114 126.432 37.4318C127.227 37.3295 127.872 37.2528 128.366 37.2017C128.866 37.1449 129.23 37.0511 129.457 36.9205C129.69 36.7898 129.807 36.5625 129.807 36.2386V36.1705C129.807 35.3295 129.577 34.6761 129.116 34.2102C128.662 33.7443 127.972 33.5114 127.045 33.5114C126.085 33.5114 125.332 33.7216 124.787 34.142C124.241 34.5625 123.858 35.0114 123.636 35.4886L121.727 34.8068C122.068 34.0114 122.523 33.392 123.091 32.9489C123.665 32.5 124.29 32.1875 124.966 32.0114C125.648 31.8295 126.318 31.7386 126.977 31.7386C127.398 31.7386 127.881 31.7898 128.426 31.892C128.977 31.9886 129.509 32.1903 130.02 32.4972C130.537 32.804 130.966 33.267 131.307 33.8864C131.648 34.5057 131.818 35.3352 131.818 36.375V45H129.807V43.2273H129.705C129.568 43.5114 129.341 43.8153 129.023 44.1392C128.705 44.4631 128.281 44.7386 127.753 44.9659C127.224 45.1932 126.58 45.3068 125.818 45.3068ZM126.125 43.5C126.92 43.5 127.591 43.3438 128.136 43.0312C128.688 42.7188 129.102 42.3153 129.381 41.821C129.665 41.3267 129.807 40.8068 129.807 40.2614V38.4205C129.722 38.5227 129.534 38.6165 129.244 38.7017C128.96 38.7812 128.631 38.8523 128.256 38.9148C127.886 38.9716 127.526 39.0227 127.173 39.0682C126.827 39.108 126.545 39.142 126.33 39.1705C125.807 39.2386 125.318 39.3494 124.864 39.5028C124.415 39.6506 124.051 39.875 123.773 40.1761C123.5 40.4716 123.364 40.875 123.364 41.3864C123.364 42.0852 123.622 42.6136 124.139 42.9716C124.662 43.3239 125.324 43.5 126.125 43.5ZM137.501 37.125V45H135.489V31.9091H137.433V33.9545H137.603C137.91 33.2898 138.376 32.7557 139.001 32.3523C139.626 31.9432 140.433 31.7386 141.421 31.7386C142.308 31.7386 143.083 31.9205 143.748 32.2841C144.413 32.642 144.93 33.1875 145.299 33.9205C145.668 34.6477 145.853 35.5682 145.853 36.6818V45H143.842V36.8182C143.842 35.7898 143.575 34.9886 143.04 34.4148C142.506 33.8352 141.773 33.5455 140.842 33.5455C140.2 33.5455 139.626 33.6847 139.12 33.9631C138.62 34.2415 138.225 34.6477 137.935 35.1818C137.646 35.7159 137.501 36.3636 137.501 37.125Z" fill="black"/>
<path d="M4.11364 27.5455V27.0455H3.61364V27.5455H4.11364ZM6.63636 27.5455L7.09909 27.356L6.97194 27.0455H6.63636V27.5455ZM12.5682 42.0341L12.1055 42.2235L12.2326 42.5341H12.5682V42.0341ZM12.7727 42.0341V42.5341H13.1083L13.2354 42.2235L12.7727 42.0341ZM18.7045 27.5455V27.0455H18.369L18.2418 27.356L18.7045 27.5455ZM21.2273 27.5455H21.7273V27.0455H21.2273V27.5455ZM21.2273 45V45.5H21.7273V45H21.2273ZM19.25 45H18.75V45.5H19.25V45ZM19.25 31.7386H19.75V31.2386H19.25V31.7386ZM19.0795 31.7386V31.2386H18.7446L18.6171 31.5484L19.0795 31.7386ZM13.625 45V45.5H13.96L14.0874 45.1902L13.625 45ZM11.7159 45L11.2535 45.1902L11.3809 45.5H11.7159V45ZM6.26136 31.7386L6.72378 31.5484L6.59635 31.2386H6.26136V31.7386ZM6.09091 31.7386V31.2386H5.59091V31.7386H6.09091ZM6.09091 45V45.5H6.59091V45H6.09091ZM4.11364 45H3.61364V45.5H4.11364V45ZM4.11364 28.0455H6.63636V27.0455H4.11364V28.0455ZM6.17364 27.7349L12.1055 42.2235L13.0309 41.8446L7.09909 27.356L6.17364 27.7349ZM12.5682 42.5341H12.7727V41.5341H12.5682V42.5341ZM13.2354 42.2235L19.1673 27.7349L18.2418 27.356L12.31 41.8446L13.2354 42.2235ZM18.7045 28.0455H21.2273V27.0455H18.7045V28.0455ZM20.7273 27.5455V45H21.7273V27.5455H20.7273ZM21.2273 44.5H19.25V45.5H21.2273V44.5ZM19.75 45V31.7386H18.75V45H19.75ZM19.25 31.2386H19.0795V32.2386H19.25V31.2386ZM18.6171 31.5484L13.1626 44.8098L14.0874 45.1902L19.542 31.9288L18.6171 31.5484ZM13.625 44.5H11.7159V45.5H13.625V44.5ZM12.1783 44.8098L6.72378 31.5484L5.79895 31.9288L11.2535 45.1902L12.1783 44.8098ZM6.26136 31.2386H6.09091V32.2386H6.26136V31.2386ZM5.59091 31.7386V45H6.59091V31.7386H5.59091ZM6.09091 44.5H4.11364V45.5H6.09091V44.5ZM4.61364 45V27.5455H3.61364V45H4.61364ZM25.1925 45H24.6925V45.5H25.1925V45ZM25.1925 31.9091V31.4091H24.6925V31.9091H25.1925ZM27.2038 31.9091H27.7038V31.4091H27.2038V31.9091ZM27.2038 45V45.5H27.7038V45H27.2038ZM25.201 29.3267L24.8549 29.6876L24.8585 29.691L25.201 29.3267ZM25.201 27.4006L24.8585 27.0362L24.8549 27.0397L25.201 27.4006ZM27.2209 27.4006L26.8748 27.7614L26.8784 27.7649L27.2209 27.4006ZM27.2209 29.3267L26.8784 28.9624L26.8748 28.9659L27.2209 29.3267ZM25.6925 45V31.9091H24.6925V45H25.6925ZM25.1925 32.4091H27.2038V31.4091H25.1925V32.4091ZM26.7038 31.9091V45H27.7038V31.9091H26.7038ZM27.2038 44.5H25.1925V45.5H27.2038V44.5ZM26.2152 29.2273C25.9496 29.2273 25.7342 29.1417 25.5434 28.9624L24.8585 29.691C25.2359 30.0458 25.6967 30.2273 26.2152 30.2273V29.2273ZM25.5471 28.9659C25.3638 28.7901 25.2834 28.5981 25.2834 28.3636H24.2834C24.2834 28.8792 24.4813 29.3293 24.8549 29.6875L25.5471 28.9659ZM25.2834 28.3636C25.2834 28.1292 25.3638 27.9372 25.5471 27.7614L24.8549 27.0397C24.4813 27.398 24.2834 27.8481 24.2834 28.3636H25.2834ZM25.5434 27.7649C25.7342 27.5855 25.9496 27.5 26.2152 27.5V26.5C25.6967 26.5 25.2359 26.6815 24.8585 27.0363L25.5434 27.7649ZM26.2152 27.5C26.4806 27.5 26.6911 27.5853 26.8748 27.7614L27.567 27.0397C27.1938 26.6818 26.7339 26.5 26.2152 26.5V27.5ZM26.8784 27.7649C27.0665 27.9417 27.147 28.1327 27.147 28.3636H28.147C28.147 27.8446 27.9435 27.3936 27.5633 27.0363L26.8784 27.7649ZM27.147 28.3636C27.147 28.5946 27.0665 28.7856 26.8784 28.9624L27.5633 29.691C27.9435 29.3337 28.147 28.8827 28.147 28.3636H27.147ZM26.8748 28.9659C26.6911 29.142 26.4806 29.2273 26.2152 29.2273V30.2273C26.7339 30.2273 27.1938 30.0455 27.567 29.6875L26.8748 28.9659ZM32.9418 44.446L32.6644 44.8621L32.6664 44.8634L32.9418 44.446ZM30.9815 42.0938L30.5279 42.3041L30.5284 42.3051L30.9815 42.0938ZM30.9815 34.9091L30.5284 34.6978L30.9815 34.9091ZM32.9503 32.5653L32.6762 32.1472L32.9503 32.5653ZM37.8849 32.1648L37.6358 32.5983L37.6417 32.6016L37.8849 32.1648ZM39.027 33.1193L38.6231 33.4142L38.6285 33.4214L39.027 33.1193ZM39.6491 33.9886L39.2299 34.2611L39.3778 34.4886H39.6491V33.9886ZM39.8196 33.9886V34.4886H40.3196V33.9886H39.8196ZM39.8196 27.5455V27.0455H39.3196V27.5455H39.8196ZM41.831 27.5455H42.331V27.0455H41.831V27.5455ZM41.831 45V45.5H42.331V45H41.831ZM39.8878 45H39.3878V45.5H39.8878V45ZM39.8878 42.9886H40.3878V42.4886H39.8878V42.9886ZM39.6491 42.9886V42.4886H39.3706L39.224 42.7255L39.6491 42.9886ZM39.0185 43.892L39.4162 44.1951L39.4185 44.192L39.0185 43.892ZM37.8509 44.8551L38.092 45.2931L38.0958 45.291L37.8509 44.8551ZM38.1491 42.8352L38.4505 43.2343L38.453 43.2323L38.1491 42.8352ZM39.419 41.071L39.8854 41.2512L39.8859 41.25L39.419 41.071ZM39.4276 35.8892L38.9609 36.0687L38.9614 36.0699L39.4276 35.8892ZM38.1662 34.1676L37.8675 34.5686L37.8702 34.5706L38.1662 34.1676ZM33.973 34.2017L34.2775 34.5983L34.2781 34.5979L33.973 34.2017ZM32.7031 35.9659L32.236 35.7876L32.2353 35.7896L32.7031 35.9659ZM32.7116 40.9943L32.2432 41.1691L32.2448 41.1733L32.7116 40.9943ZM33.9901 42.8011L33.6782 43.192L33.6825 43.1954L33.9901 42.8011ZM35.831 44.7727C34.8288 44.7727 33.9633 44.521 33.2171 44.0287L32.6664 44.8634C33.5907 45.4733 34.6514 45.7727 35.831 45.7727V44.7727ZM33.2191 44.03C32.4685 43.5296 31.872 42.8203 31.4347 41.8824L30.5284 42.3051C31.0343 43.3899 31.7446 44.2489 32.6644 44.862L33.2191 44.03ZM31.4351 41.8834C31.0005 40.946 30.7741 39.8191 30.7741 38.4886H29.7741C29.7741 39.9309 30.0194 41.2074 30.5279 42.3041L31.4351 41.8834ZM30.7741 38.4886C30.7741 37.1701 31.0003 36.0521 31.4347 35.1204L30.5284 34.6978C30.0196 35.7888 29.7741 37.0572 29.7741 38.4886H30.7741ZM31.4347 35.1204C31.8714 34.1838 32.4696 33.4782 33.2244 32.9835L32.6762 32.1472C31.7492 32.7547 31.0348 33.6117 30.5284 34.6978L31.4347 35.1204ZM33.2244 32.9835C33.976 32.4909 34.8504 32.2386 35.8651 32.2386V31.2386C34.6752 31.2386 33.6064 31.5375 32.6762 32.1472L33.2244 32.9835ZM35.8651 32.2386C36.67 32.2386 37.2458 32.3741 37.6358 32.5983L38.1341 31.7313C37.5355 31.3872 36.7647 31.2386 35.8651 31.2386V32.2386ZM37.6417 32.6016C38.0962 32.8547 38.415 33.129 38.6232 33.4142L39.4308 32.8245C39.1163 32.3937 38.6737 32.0317 38.1282 31.7279L37.6417 32.6016ZM38.6285 33.4214C38.8922 33.7692 39.0915 34.0482 39.2299 34.2611L40.0684 33.7161C39.9113 33.4745 39.6959 33.174 39.4254 32.8173L38.6285 33.4214ZM39.6491 34.4886H39.8196V33.4886H39.6491V34.4886ZM40.3196 33.9886V27.5455H39.3196V33.9886H40.3196ZM39.8196 28.0455H41.831V27.0455H39.8196V28.0455ZM41.331 27.5455V45H42.331V27.5455H41.331ZM41.831 44.5H39.8878V45.5H41.831V44.5ZM40.3878 45V42.9886H39.3878V45H40.3878ZM39.8878 42.4886H39.6491V43.4886H39.8878V42.4886ZM39.224 42.7255C39.0874 42.9462 38.887 43.234 38.6185 43.592L39.4185 44.192C39.6954 43.8228 39.9155 43.5084 40.0743 43.2518L39.224 42.7255ZM38.6208 43.589C38.3994 43.8795 38.0686 44.1593 37.606 44.4192L38.0958 45.291C38.6444 44.9828 39.092 44.6205 39.4162 44.1951L38.6208 43.589ZM37.6097 44.4171C37.204 44.6405 36.6235 44.7727 35.831 44.7727V45.7727C36.7203 45.7727 37.4863 45.6266 38.092 45.2931L37.6097 44.4171ZM36.1037 43.9659C37.0016 43.9659 37.7937 43.7302 38.4505 43.2342L37.8478 42.4362C37.3909 42.7812 36.8195 42.9659 36.1037 42.9659V43.9659ZM38.453 43.2323C39.0932 42.7424 39.5674 42.0742 39.8854 41.2512L38.9526 40.8908C38.6911 41.5678 38.3188 42.0758 37.8453 42.4382L38.453 43.2323ZM39.8859 41.25C40.2018 40.4261 40.3537 39.4912 40.3537 38.4545H39.3537C39.3537 39.3951 39.2158 40.2046 38.9522 40.892L39.8859 41.25ZM40.3537 38.4545C40.3537 37.43 40.2049 36.5112 39.8938 35.7085L38.9614 36.0699C39.2184 36.7331 39.3537 37.5246 39.3537 38.4545H40.3537ZM39.8942 35.7097C39.5809 34.8951 39.1069 34.2383 38.4622 33.7647L37.8702 34.5706C38.3392 34.9151 38.706 35.406 38.9609 36.0687L39.8942 35.7097ZM38.4649 33.7666C37.8071 33.2766 37.0097 33.0455 36.1037 33.0455V34.0455C36.8341 34.0455 37.4117 34.229 37.8675 34.5686L38.4649 33.7666ZM36.1037 33.0455C35.1626 33.0455 34.3392 33.2887 33.668 33.8055L34.2781 34.5979C34.7432 34.2397 35.3402 34.0455 36.1037 34.0455V33.0455ZM33.6685 33.8051C33.0239 34.3 32.5489 34.9678 32.236 35.7876L33.1703 36.1442C33.4255 35.4753 33.7971 34.9671 34.2775 34.5983L33.6685 33.8051ZM32.2353 35.7896C31.9324 36.5931 31.7855 37.4837 31.7855 38.4545H32.7855C32.7855 37.5845 32.917 36.816 33.171 36.1423L32.2353 35.7896ZM31.7855 38.4545C31.7855 39.4374 31.9354 40.3443 32.2432 41.1691L33.1801 40.8195C32.9197 40.1216 32.7855 39.3353 32.7855 38.4545H31.7855ZM32.2448 41.1733C32.5624 42.0016 33.0377 42.6809 33.6782 43.192L34.3019 42.4103C33.8174 42.0237 33.4405 41.4984 33.1785 40.8153L32.2448 41.1733ZM33.6825 43.1954C34.3527 43.7181 35.1708 43.9659 36.1037 43.9659V42.9659C35.3548 42.9659 34.7637 42.7705 34.2976 42.4069L33.6825 43.1954ZM47.848 44.446L47.5707 44.8621L47.5726 44.8634L47.848 44.446ZM45.8878 42.0938L45.4342 42.3041L45.4346 42.3051L45.8878 42.0938ZM45.8878 34.9091L45.4346 34.6978L45.8878 34.9091ZM47.8565 32.5653L47.5825 32.1472H47.5825L47.8565 32.5653ZM52.7912 32.1648L52.542 32.5983L52.548 32.6016L52.7912 32.1648ZM53.9332 33.1193L53.5294 33.4142L53.5348 33.4214L53.9332 33.1193ZM54.5554 33.9886L54.1362 34.2611L54.2841 34.4886H54.5554V33.9886ZM54.7259 33.9886V34.4886H55.2259V33.9886H54.7259ZM54.7259 27.5455V27.0455H54.2259V27.5455H54.7259ZM56.7372 27.5455H57.2372V27.0455H56.7372V27.5455ZM56.7372 45V45.5H57.2372V45H56.7372ZM54.794 45H54.294V45.5H54.794V45ZM54.794 42.9886H55.294V42.4886H54.794V42.9886ZM54.5554 42.9886V42.4886H54.2769L54.1303 42.7255L54.5554 42.9886ZM53.9247 43.892L54.3224 44.1951L54.3247 44.192L53.9247 43.892ZM52.7571 44.8551L52.9983 45.2931L53.002 45.291L52.7571 44.8551ZM53.0554 42.8352L53.3567 43.2343L53.3593 43.2323L53.0554 42.8352ZM54.3253 41.071L54.7917 41.2512L54.7921 41.25L54.3253 41.071ZM54.3338 35.8892L53.8671 36.0687L53.8676 36.0699L54.3338 35.8892ZM53.0724 34.1676L52.7737 34.5686L52.7764 34.5706L53.0724 34.1676ZM48.8793 34.2017L49.1837 34.5983L49.1843 34.5979L48.8793 34.2017ZM47.6094 35.9659L47.1422 35.7876L47.1415 35.7896L47.6094 35.9659ZM47.6179 40.9943L47.1494 41.1691L47.151 41.1733L47.6179 40.9943ZM48.8963 42.8011L48.5844 43.192L48.5888 43.1954L48.8963 42.8011ZM50.7372 44.7727C49.735 44.7727 48.8695 44.521 48.1234 44.0287L47.5726 44.8634C48.4969 45.4733 49.5576 45.7727 50.7372 45.7727V44.7727ZM48.1254 44.03C47.3747 43.5296 46.7783 42.8203 46.3409 41.8824L45.4346 42.3051C45.9405 43.3899 46.6509 44.2489 47.5707 44.862L48.1254 44.03ZM46.3414 41.8834C45.9067 40.946 45.6804 39.8191 45.6804 38.4886H44.6804C44.6804 39.9309 44.9257 41.2074 45.4342 42.3041L46.3414 41.8834ZM45.6804 38.4886C45.6804 37.1701 45.9065 36.0521 46.3409 35.1204L45.4346 34.6978C44.9259 35.7888 44.6804 37.0572 44.6804 38.4886H45.6804ZM46.3409 35.1204C46.7777 34.1838 47.3758 33.4782 48.1306 32.9835L47.5825 32.1472C46.6554 32.7547 45.9411 33.6117 45.4346 34.6978L46.3409 35.1204ZM48.1306 32.9835C48.8823 32.4909 49.7567 32.2386 50.7713 32.2386V31.2386C49.5814 31.2386 48.5126 31.5375 47.5825 32.1472L48.1306 32.9835ZM50.7713 32.2386C51.5762 32.2386 52.152 32.3741 52.542 32.5983L53.0403 31.7313C52.4417 31.3872 51.6709 31.2386 50.7713 31.2386V32.2386ZM52.548 32.6016C53.0025 32.8547 53.3212 33.129 53.5294 33.4142L54.3371 32.8245C54.0225 32.3937 53.5799 32.0317 53.0344 31.7279L52.548 32.6016ZM53.5348 33.4214C53.7985 33.7692 53.9978 34.0482 54.1362 34.2611L54.9746 33.7161C54.8176 33.4745 54.6021 33.174 54.3317 32.8173L53.5348 33.4214ZM54.5554 34.4886H54.7259V33.4886H54.5554V34.4886ZM55.2259 33.9886V27.5455H54.2259V33.9886H55.2259ZM54.7259 28.0455H56.7372V27.0455H54.7259V28.0455ZM56.2372 27.5455V45H57.2372V27.5455H56.2372ZM56.7372 44.5H54.794V45.5H56.7372V44.5ZM55.294 45V42.9886H54.294V45H55.294ZM54.794 42.4886H54.5554V43.4886H54.794V42.4886ZM54.1303 42.7255C53.9936 42.9462 53.7932 43.234 53.5247 43.592L54.3247 44.192C54.6016 43.8228 54.8217 43.5084 54.9805 43.2518L54.1303 42.7255ZM53.527 43.589C53.3057 43.8795 52.9749 44.1593 52.5122 44.4192L53.002 45.291C53.5507 44.9828 53.9983 44.6205 54.3224 44.1951L53.527 43.589ZM52.516 44.4171C52.1103 44.6405 51.5297 44.7727 50.7372 44.7727V45.7727C51.6265 45.7727 52.3926 45.6266 52.9982 45.2931L52.516 44.4171ZM51.0099 43.9659C51.9078 43.9659 52.7 43.7302 53.3567 43.2342L52.7541 42.4362C52.2972 42.7812 51.7257 42.9659 51.0099 42.9659V43.9659ZM53.3593 43.2323C53.9994 42.7424 54.4737 42.0742 54.7917 41.2512L53.8589 40.8908C53.5973 41.5678 53.225 42.0758 52.7515 42.4382L53.3593 43.2323ZM54.7921 41.25C55.1081 40.4261 55.2599 39.4912 55.2599 38.4545H54.2599C54.2599 39.3951 54.122 40.2046 53.8584 40.892L54.7921 41.25ZM55.2599 38.4545C55.2599 37.43 55.1111 36.5112 54.8 35.7085L53.8676 36.0699C54.1247 36.7331 54.2599 37.5246 54.2599 38.4545H55.2599ZM54.8005 35.7097C54.4872 34.8951 54.0131 34.2383 53.3685 33.7647L52.7764 34.5706C53.2454 34.9151 53.6123 35.406 53.8671 36.0687L54.8005 35.7097ZM53.3711 33.7666C52.7133 33.2766 51.9159 33.0455 51.0099 33.0455V34.0455C51.7403 34.0455 52.3179 34.229 52.7738 34.5686L53.3711 33.7666ZM51.0099 33.0455C50.0688 33.0455 49.2455 33.2887 48.5742 33.8055L49.1843 34.5979C49.6494 34.2397 50.2465 34.0455 51.0099 34.0455V33.0455ZM48.5748 33.8051C47.9301 34.3 47.4551 34.9678 47.1422 35.7876L48.0765 36.1442C48.3318 35.4753 48.7034 34.9671 49.1837 34.5983L48.5748 33.8051ZM47.1415 35.7896C46.8386 36.5931 46.6918 37.4837 46.6918 38.4545H47.6918C47.6918 37.5845 47.8233 36.816 48.0772 36.1423L47.1415 35.7896ZM46.6918 38.4545C46.6918 39.4374 46.8417 40.3443 47.1494 41.1691L48.0863 40.8195C47.8259 40.1216 47.6918 39.3353 47.6918 38.4545H46.6918ZM47.151 41.1733C47.4686 42.0016 47.944 42.6809 48.5844 43.192L49.2082 42.4103C48.7236 42.0237 48.3467 41.4984 48.0848 40.8153L47.151 41.1733ZM48.5888 43.1954C49.259 43.7181 50.077 43.9659 51.0099 43.9659V42.9659C50.2611 42.9659 49.67 42.7705 49.2038 42.4069L48.5888 43.1954ZM62.7116 27.5455H63.2116V27.0455H62.7116V27.5455ZM62.7116 45V45.5H63.2116V45H62.7116ZM60.7003 45H60.2003V45.5H60.7003V45ZM60.7003 27.5455V27.0455H60.2003V27.5455H60.7003ZM62.2116 27.5455V45H63.2116V27.5455H62.2116ZM62.7116 44.5H60.7003V45.5H62.7116V44.5ZM61.2003 45V27.5455H60.2003V45H61.2003ZM60.7003 28.0455H62.7116V27.0455H60.7003V28.0455ZM68.62 44.4375L68.3569 44.8627L68.3601 44.8646L68.62 44.4375ZM66.5149 42.0852L66.0647 42.3027L66.0662 42.3058L66.5149 42.0852ZM66.5149 35.0114L66.0643 34.7948L66.0638 34.7958L66.5149 35.0114ZM68.5774 32.608L68.8504 33.0269L68.851 33.0264L68.5774 32.608ZM73.6996 32.0795L73.8613 31.6064L73.6996 32.0795ZM75.5149 33.1875L75.1729 33.5523L75.175 33.5542L75.5149 33.1875ZM76.8189 35.1989L77.2851 35.0181L76.8189 35.1989ZM77.3047 39.1364V39.6364H77.8047V39.1364H77.3047ZM67.2138 39.1364H66.7138V39.6364H67.2138V39.1364ZM67.2138 37.3977V36.8977H66.7138V37.3977H67.2138ZM75.2592 37.3977V37.8977H75.7592V37.3977H75.2592ZM74.8161 35.4205L74.3688 35.6441L74.3706 35.6475L74.8161 35.4205ZM73.5717 34.0483L73.3059 34.4718L73.3079 34.473L73.5717 34.0483ZM69.6001 34.142L69.8803 34.5562L69.8812 34.5556L69.6001 34.142ZM68.2621 35.6761L67.8141 35.4541L68.2621 35.6761ZM68.3047 41.3778L67.8567 41.6L67.859 41.6044L68.3047 41.3778ZM69.745 42.9375L69.4931 43.3694L69.4961 43.3711L69.745 42.9375ZM73.3161 43.2443L73.4798 43.7168L73.4834 43.7155L73.3161 43.2443ZM74.4325 42.5625L74.7795 42.9226L74.7828 42.9193L74.4325 42.5625ZM75.157 41.4205L75.2921 40.9391L74.85 40.815L74.6888 41.2449L75.157 41.4205ZM77.1001 41.9659L77.5777 42.1141L77.73 41.6234L77.2353 41.4845L77.1001 41.9659ZM76.0689 43.7045L76.4265 44.054L76.4285 44.0519L76.0689 43.7045ZM74.2791 44.8636L74.4584 45.3304L74.4616 45.3291L74.2791 44.8636ZM71.8842 44.7727C70.6981 44.7727 69.7035 44.5116 68.88 44.0104L68.3601 44.8646C69.3661 45.477 70.5477 45.7727 71.8842 45.7727V44.7727ZM68.8831 44.0123C68.0578 43.5017 67.4186 42.7903 66.9636 41.8647L66.0662 42.3058C66.5998 43.3915 67.364 44.2483 68.3569 44.8627L68.8831 44.0123ZM66.9651 41.8677C66.515 40.9361 66.282 39.8368 66.282 38.5568H65.282C65.282 39.9586 65.5375 41.2117 66.0647 42.3027L66.9651 41.8677ZM66.282 38.5568C66.282 37.277 66.515 36.1711 66.9661 35.2269L66.0638 34.7958C65.5376 35.8971 65.282 37.1548 65.282 38.5568H66.282ZM66.9656 35.228C67.4238 34.2747 68.0528 33.5466 68.8504 33.0269L68.3044 32.189C67.3406 32.8171 66.5947 33.6912 66.0643 34.7948L66.9656 35.228ZM68.851 33.0264C69.6468 32.5061 70.5834 32.2386 71.6797 32.2386V31.2386C70.4123 31.2386 69.2807 31.5507 68.3038 32.1895L68.851 33.0264ZM71.6797 32.2386C72.3048 32.2386 72.9235 32.3426 73.5378 32.5527L73.8613 31.6064C73.1461 31.3619 72.4182 31.2386 71.6797 31.2386V32.2386ZM73.5378 32.5527C74.1313 32.7555 74.6758 33.0862 75.1729 33.5523L75.8569 32.8227C75.2631 32.2661 74.5974 31.8581 73.8613 31.6064L73.5378 32.5527ZM75.175 33.5542C75.6546 33.9988 76.0508 34.6009 76.3527 35.3796L77.2851 35.0181C76.9393 34.1264 76.4662 33.3876 75.8549 32.8208L75.175 33.5542ZM76.3527 35.3796C76.6477 36.1404 76.8047 37.1033 76.8047 38.2841H77.8047C77.8047 37.0217 77.6378 35.9278 77.2851 35.0181L76.3527 35.3796ZM76.8047 38.2841V39.1364H77.8047V38.2841H76.8047ZM77.3047 38.6364H67.2138V39.6364H77.3047V38.6364ZM67.7138 39.1364V37.3977H66.7138V39.1364H67.7138ZM67.2138 37.8977H75.2592V36.8977H67.2138V37.8977ZM75.7592 37.3977C75.7592 36.5909 75.5974 35.8522 75.2615 35.1934L74.3706 35.6475C74.6256 36.1478 74.7592 36.7273 74.7592 37.3977H75.7592ZM75.2633 35.1968C74.933 34.5363 74.4555 34.0086 73.8355 33.6235L73.3079 34.473C73.7675 34.7585 74.1196 35.1455 74.3688 35.6441L75.2633 35.1968ZM73.8375 33.6248C73.2122 33.2323 72.4863 33.0455 71.6797 33.0455V34.0455C72.3276 34.0455 72.8631 34.1938 73.3059 34.4718L73.8375 33.6248ZM71.6797 33.0455C70.792 33.0455 69.9979 33.2672 69.3191 33.7285L69.8812 34.5556C70.3729 34.2214 70.9651 34.0455 71.6797 34.0455V33.0455ZM69.32 33.7279C68.6684 34.1687 68.1647 34.7465 67.8141 35.4541L68.7101 35.8981C68.9844 35.3445 69.3728 34.8995 69.8803 34.5562L69.32 33.7279ZM67.8141 35.4541C67.4665 36.1556 67.2933 36.9079 67.2933 37.7045H68.2933C68.2933 37.058 68.4327 36.458 68.7101 35.8981L67.8141 35.4541ZM67.2933 37.7045V38.8636H68.2933V37.7045H67.2933ZM67.2933 38.8636C67.2933 39.9079 67.4732 40.8265 67.8567 41.6L68.7526 41.1557C68.4544 40.5542 68.2933 39.7967 68.2933 38.8636H67.2933ZM67.859 41.6044C68.2456 42.365 68.7901 42.9593 69.4931 43.3694L69.997 42.5056C69.4727 42.1998 69.0569 41.7543 68.7504 41.1513L67.859 41.6044ZM69.4961 43.3711C70.1961 43.773 70.9975 43.9659 71.8842 43.9659V42.9659C71.146 42.9659 70.5212 42.8066 69.994 42.5039L69.4961 43.3711ZM71.8842 43.9659C72.459 43.9659 72.9929 43.8856 73.4798 43.7167L73.1523 42.7719C72.787 42.8985 72.3662 42.9659 71.8842 42.9659V43.9659ZM73.4834 43.7155C73.9785 43.5396 74.4129 43.2758 74.7795 42.9225L74.0856 42.2025C73.8272 42.4515 73.5172 42.6422 73.1487 42.7732L73.4834 43.7155ZM74.7828 42.9193C75.1528 42.5561 75.4319 42.1114 75.6251 41.596L74.6888 41.2449C74.5411 41.6386 74.3373 41.9553 74.0822 42.2057L74.7828 42.9193ZM75.0218 41.9018L76.965 42.4473L77.2353 41.4845L75.2921 40.9391L75.0218 41.9018ZM76.6226 41.8177C76.4414 42.4015 76.1383 42.913 75.7093 43.3572L76.4285 44.0519C76.9654 43.4961 77.3498 42.8485 77.5777 42.1141L76.6226 41.8177ZM75.7113 43.3551C75.2827 43.7937 74.7478 44.1429 74.0966 44.3981L74.4616 45.3291C75.2309 45.0276 75.8891 44.604 76.4265 44.054L75.7113 43.3551ZM74.0999 44.3969C73.4555 44.6443 72.7193 44.7727 71.8842 44.7727V45.7727C72.8219 45.7727 73.6823 45.6284 74.4584 45.3304L74.0999 44.3969ZM100.887 27.5455V27.0455H100.387V27.5455H100.887ZM103.41 27.5455L103.873 27.356L103.745 27.0455H103.41V27.5455ZM109.342 42.0341L108.879 42.2235L109.006 42.5341H109.342V42.0341ZM109.546 42.0341V42.5341H109.882L110.009 42.2235L109.546 42.0341ZM115.478 27.5455V27.0455H115.142L115.015 27.356L115.478 27.5455ZM118.001 27.5455H118.501V27.0455H118.001V27.5455ZM118.001 45V45.5H118.501V45H118.001ZM116.023 45H115.523V45.5H116.023V45ZM116.023 31.7386H116.523V31.2386H116.023V31.7386ZM115.853 31.7386V31.2386H115.518L115.391 31.5484L115.853 31.7386ZM110.398 45V45.5H110.733L110.861 45.1902L110.398 45ZM108.489 45L108.027 45.1902L108.154 45.5H108.489V45ZM103.035 31.7386L103.497 31.5484L103.37 31.2386H103.035V31.7386ZM102.864 31.7386V31.2386H102.364V31.7386H102.864ZM102.864 45V45.5H103.364V45H102.864ZM100.887 45H100.387V45.5H100.887V45ZM100.887 28.0455H103.41V27.0455H100.887V28.0455ZM102.947 27.7349L108.879 42.2235L109.804 41.8446L103.873 27.356L102.947 27.7349ZM109.342 42.5341H109.546V41.5341H109.342V42.5341ZM110.009 42.2235L115.941 27.7349L115.015 27.356L109.083 41.8446L110.009 42.2235ZM115.478 28.0455H118.001V27.0455H115.478V28.0455ZM117.501 27.5455V45H118.501V27.5455H117.501ZM118.001 44.5H116.023V45.5H118.001V44.5ZM116.523 45V31.7386H115.523V45H116.523ZM116.023 31.2386H115.853V32.2386H116.023V31.2386ZM115.391 31.5484L109.936 44.8098L110.861 45.1902L116.315 31.9288L115.391 31.5484ZM110.398 44.5H108.489V45.5H110.398V44.5ZM108.952 44.8098L103.497 31.5484L102.572 31.9288L108.027 45.1902L108.952 44.8098ZM103.035 31.2386H102.864V32.2386H103.035V31.2386ZM102.364 31.7386V45H103.364V31.7386H102.364ZM102.864 44.5H100.887V45.5H102.864V44.5ZM101.387 45V27.5455H100.387V45H101.387ZM123.56 44.8381L123.347 45.2905L123.35 45.2919L123.56 44.8381ZM121.949 43.4659L121.532 43.7414L121.533 43.7433L121.949 43.4659ZM121.795 39.4602L122.218 39.728L122.219 39.7257L121.795 39.4602ZM124.616 37.7557L124.723 38.2441L124.727 38.2433L124.616 37.7557ZM126.432 37.4318L126.368 36.9359L126.367 36.936L126.432 37.4318ZM128.366 37.2017L128.418 37.6991L128.423 37.6985L128.366 37.2017ZM129.457 36.9205L129.213 36.4844L129.208 36.487L129.457 36.9205ZM129.116 34.2102L128.759 34.5594L128.761 34.5616L129.116 34.2102ZM124.787 34.142L125.092 34.5381L124.787 34.142ZM123.636 35.4886L123.468 35.9595L123.898 36.1129L124.09 35.6992L123.636 35.4886ZM121.727 34.8068L121.268 34.6099L121.058 35.0988L121.559 35.2777L121.727 34.8068ZM123.091 32.9489L123.398 33.3431L123.399 33.3427L123.091 32.9489ZM124.966 32.0114L125.092 32.4952L125.095 32.4945L124.966 32.0114ZM128.426 31.892L128.334 32.3835L128.34 32.3845L128.426 31.892ZM130.02 32.4972L129.763 32.9259L129.765 32.9272L130.02 32.4972ZM131.307 33.8864L130.869 34.1275L131.307 33.8864ZM131.818 45V45.5H132.318V45H131.818ZM129.807 45H129.307V45.5H129.807V45ZM129.807 43.2273H130.307V42.7273H129.807V43.2273ZM129.705 43.2273V42.7273H129.39L129.254 43.0109L129.705 43.2273ZM129.023 44.1392L129.379 44.4896L129.023 44.1392ZM127.753 44.9659L127.555 44.5066L127.753 44.9659ZM128.136 43.0312L127.89 42.5963L127.888 42.5974L128.136 43.0312ZM129.381 41.821L128.947 41.5719L128.945 41.5757L129.381 41.821ZM129.807 38.4205H130.307V37.0394L129.423 38.1004L129.807 38.4205ZM129.244 38.7017L129.379 39.1832L129.385 39.1814L129.244 38.7017ZM128.256 38.9148L128.332 39.409L128.338 39.408L128.256 38.9148ZM127.173 39.0682L127.23 39.565L127.237 39.5641L127.173 39.0682ZM126.33 39.1705L126.394 39.6663L126.395 39.6662L126.33 39.1705ZM124.864 39.5028L125.02 39.9778L125.024 39.9766L124.864 39.5028ZM123.773 40.1761L123.406 39.8367L123.405 39.837L123.773 40.1761ZM124.139 42.9716L123.855 43.3827L123.86 43.3862L124.139 42.9716ZM125.818 44.8068C125.053 44.8068 124.373 44.663 123.769 44.3842L123.35 45.2919C124.099 45.6381 124.924 45.8068 125.818 45.8068V44.8068ZM123.773 44.3857C123.175 44.1045 122.71 43.7061 122.365 43.1886L121.533 43.7433C121.983 44.4189 122.592 44.9352 123.347 45.2905L123.773 44.3857ZM122.366 43.1904C122.032 42.6837 121.852 42.0564 121.852 41.2841H120.852C120.852 42.2163 121.071 43.0435 121.532 43.7414L122.366 43.1904ZM121.852 41.2841C121.852 40.5959 121.988 40.0899 122.218 39.728L121.373 39.1925C121.012 39.7624 120.852 40.4723 120.852 41.2841H121.852ZM122.219 39.7257C122.468 39.3281 122.799 39.0186 123.218 38.7922L122.742 37.9124C122.173 38.2201 121.714 38.6492 121.372 39.1948L122.219 39.7257ZM123.218 38.7922C123.668 38.5492 124.169 38.3657 124.723 38.2441L124.509 37.2673C123.871 37.4071 123.281 37.6213 122.742 37.9124L123.218 38.7922ZM124.727 38.2433C125.314 38.1104 125.904 38.0051 126.497 37.9276L126.367 36.936C125.744 37.0176 125.123 37.1283 124.506 37.268L124.727 38.2433ZM126.496 37.9277C127.289 37.8257 127.929 37.7496 128.418 37.6991L128.315 36.7044C127.815 36.7561 127.165 36.8334 126.368 36.9359L126.496 37.9277ZM128.423 37.6985C128.94 37.6398 129.388 37.5373 129.707 37.3539L129.208 36.487C129.073 36.565 128.793 36.65 128.31 36.7049L128.423 37.6985ZM129.702 37.3565C130.129 37.1172 130.307 36.6979 130.307 36.2386H129.307C129.307 36.4271 129.252 36.4624 129.213 36.4844L129.702 37.3565ZM130.307 36.2386V36.1705H129.307V36.2386H130.307ZM130.307 36.1705C130.307 35.237 130.049 34.4429 129.472 33.8588L128.761 34.5616C129.104 34.9094 129.307 35.4221 129.307 36.1705H130.307ZM129.474 33.8611C128.892 33.264 128.049 33.0114 127.045 33.0114V34.0114C127.895 34.0114 128.432 34.2246 128.759 34.5594L129.474 33.8611ZM127.045 33.0114C126.017 33.0114 125.143 33.2361 124.482 33.746L125.092 34.5381C125.521 34.2071 126.153 34.0114 127.045 34.0114V33.0114ZM124.482 33.746C123.892 34.2009 123.447 34.709 123.183 35.2781L124.09 35.6992C124.269 35.3137 124.591 34.9241 125.092 34.5381L124.482 33.746ZM123.805 35.0178L121.895 34.3359L121.559 35.2777L123.468 35.9595L123.805 35.0178ZM122.187 35.0038C122.501 34.2703 122.909 33.7249 123.398 33.3431L122.783 32.5546C122.137 33.0592 121.635 33.7524 121.268 34.6099L122.187 35.0038ZM123.399 33.3427C123.921 32.9341 124.485 32.6534 125.092 32.4952L124.84 31.5275C124.095 31.7216 123.408 32.0659 122.783 32.555L123.399 33.3427ZM125.095 32.4945C125.737 32.3231 126.365 32.2386 126.977 32.2386V31.2386C126.272 31.2386 125.558 31.336 124.837 31.5282L125.095 32.4945ZM126.977 32.2386C127.359 32.2386 127.81 32.2852 128.334 32.3835L128.518 31.4006C127.951 31.2943 127.437 31.2386 126.977 31.2386V32.2386ZM128.34 32.3845C128.827 32.4699 129.3 32.6485 129.763 32.9259L130.277 32.0684C129.717 31.7321 129.128 31.5074 128.512 31.3996L128.34 32.3845ZM129.765 32.9272C130.193 33.181 130.563 33.5724 130.869 34.1275L131.745 33.6452C131.369 32.9617 130.881 32.427 130.275 32.0672L129.765 32.9272ZM130.869 34.1275C131.154 34.6462 131.318 35.3827 131.318 36.375H132.318C132.318 35.2878 132.141 34.3651 131.745 33.6452L130.869 34.1275ZM131.318 36.375V45H132.318V36.375H131.318ZM131.818 44.5H129.807V45.5H131.818V44.5ZM130.307 45V43.2273H129.307V45H130.307ZM129.807 42.7273H129.705V43.7273H129.807V42.7273ZM129.254 43.0109C129.149 43.2288 128.961 43.4884 128.666 43.7888L129.379 44.4896C129.721 44.1423 129.987 43.7939 130.155 43.4436L129.254 43.0109ZM128.666 43.7888C128.404 44.0558 128.039 44.2984 127.555 44.5066L127.95 45.4252C128.523 45.1789 129.005 44.8703 129.379 44.4896L128.666 43.7888ZM127.555 44.5066C127.106 44.6999 126.532 44.8068 125.818 44.8068V45.8068C126.627 45.8068 127.343 45.6865 127.95 45.4252L127.555 44.5066ZM126.125 44C126.985 44 127.746 43.831 128.385 43.4651L127.888 42.5974C127.436 42.8565 126.856 43 126.125 43V44ZM128.383 43.4662C129.004 43.1142 129.488 42.6489 129.816 42.0664L128.945 41.5757C128.716 41.9818 128.371 42.3233 127.89 42.5963L128.383 43.4662ZM129.814 42.0702C130.14 41.5036 130.307 40.8983 130.307 40.2614H129.307C129.307 40.7154 129.19 41.1498 128.947 41.5719L129.814 42.0702ZM130.307 40.2614V38.4205H129.307V40.2614H130.307ZM129.423 38.1004C129.442 38.0768 129.442 38.0884 129.379 38.1203C129.32 38.1495 129.231 38.1845 129.103 38.222L129.385 39.1814C129.547 39.1337 129.697 39.0792 129.826 39.0147C129.95 38.9528 130.086 38.8664 130.191 38.7405L129.423 38.1004ZM129.11 38.2202C128.847 38.2938 128.536 38.3612 128.173 38.4216L128.338 39.408C128.726 39.3433 129.074 39.2687 129.379 39.1832L129.11 38.2202ZM128.18 38.4206C127.814 38.4768 127.457 38.5274 127.109 38.5723L127.237 39.5641C127.594 39.5181 127.959 39.4664 128.332 39.409L128.18 38.4206ZM127.116 38.5714C126.768 38.6114 126.484 38.6458 126.264 38.6747L126.395 39.6662C126.607 39.6383 126.885 39.6045 127.23 39.5649L127.116 38.5714ZM126.265 38.6747C125.713 38.7467 125.192 38.8643 124.704 39.0291L125.024 39.9766C125.444 39.8346 125.901 39.7306 126.394 39.6663L126.265 38.6747ZM124.707 39.0279C124.19 39.1981 123.75 39.4643 123.406 39.8367L124.14 40.5156C124.352 40.2857 124.639 40.1031 125.02 39.9778L124.707 39.0279ZM123.405 39.837C123.026 40.2479 122.864 40.7847 122.864 41.3864H123.864C123.864 40.9653 123.974 40.6953 124.14 40.5153L123.405 39.837ZM122.864 41.3864C122.864 42.228 123.186 42.9198 123.855 43.3827L124.424 42.5605C124.058 42.3074 123.864 41.9425 123.864 41.3864H122.864ZM123.86 43.3862C124.485 43.8075 125.251 44 126.125 44V43C125.397 43 124.839 42.8402 124.419 42.557L123.86 43.3862ZM137.501 45V45.5H138.001V45H137.501ZM135.489 45H134.989V45.5H135.489V45ZM135.489 31.9091V31.4091H134.989V31.9091H135.489ZM137.433 31.9091H137.933V31.4091H137.433V31.9091ZM137.433 33.9545H136.933V34.4545H137.433V33.9545ZM137.603 33.9545V34.4545H137.923L138.057 34.1641L137.603 33.9545ZM139.001 32.3523L139.272 32.7724L139.275 32.7706L139.001 32.3523ZM143.748 32.2841L143.508 32.7228L143.511 32.7243L143.748 32.2841ZM145.299 33.9205L144.852 34.1454L144.853 34.1468L145.299 33.9205ZM145.853 45V45.5H146.353V45H145.853ZM143.842 45H143.342V45.5H143.842V45ZM143.04 34.4148L142.673 34.7536L142.674 34.7554L143.04 34.4148ZM139.12 33.9631L138.879 33.5251L138.877 33.5262L139.12 33.9631ZM137.935 35.1818L137.496 34.9434L137.935 35.1818ZM137.001 37.125V45H138.001V37.125H137.001ZM137.501 44.5H135.489V45.5H137.501V44.5ZM135.989 45V31.9091H134.989V45H135.989ZM135.489 32.4091H137.433V31.4091H135.489V32.4091ZM136.933 31.9091V33.9545H137.933V31.9091H136.933ZM137.433 34.4545H137.603V33.4545H137.433V34.4545ZM138.057 34.1641C138.323 33.5869 138.725 33.1252 139.272 32.7724L138.73 31.9322C138.026 32.3861 137.496 32.9927 137.149 33.745L138.057 34.1641ZM139.275 32.7706C139.796 32.4295 140.499 32.2386 141.421 32.2386V31.2386C140.366 31.2386 139.456 31.4569 138.727 31.9339L139.275 32.7706ZM141.421 32.2386C142.238 32.2386 142.928 32.4057 143.508 32.7228L143.988 31.8454C143.238 31.4352 142.377 31.2386 141.421 31.2386V32.2386ZM143.511 32.7243C144.077 33.0294 144.525 33.4956 144.852 34.1454L145.746 33.6955C145.334 32.8794 144.748 32.2547 143.985 31.8439L143.511 32.7243ZM144.853 34.1468C145.176 34.7831 145.353 35.6196 145.353 36.6818H146.353C146.353 35.5168 146.16 34.5123 145.745 33.6941L144.853 34.1468ZM145.353 36.6818V45H146.353V36.6818H145.353ZM145.853 44.5H143.842V45.5H145.853V44.5ZM144.342 45V36.8182H143.342V45H144.342ZM144.342 36.8182C144.342 35.7039 144.051 34.7664 143.406 34.0741L142.674 34.7554C143.098 35.2108 143.342 35.8757 143.342 36.8182H144.342ZM143.408 34.0759C142.762 33.3749 141.885 33.0455 140.842 33.0455V34.0455C141.661 34.0455 142.251 34.2956 142.673 34.7536L143.408 34.0759ZM140.842 33.0455C140.125 33.0455 139.466 33.2016 138.879 33.5251L139.361 34.4011C139.785 34.1677 140.274 34.0455 140.842 34.0455V33.0455ZM138.877 33.5262C138.289 33.8537 137.828 34.3313 137.496 34.9434L138.375 35.4203C138.622 34.9642 138.951 34.6293 139.363 34.3999L138.877 33.5262ZM137.496 34.9434C137.158 35.5669 137.001 36.301 137.001 37.125H138.001C138.001 36.4262 138.134 35.8649 138.375 35.4203L137.496 34.9434Z" fill="black" mask="url(#path-1-outside-1_115_3506)"/>
</g>
<line x1="89.5" y1="18" x2="89.5" y2="51" stroke="black"/>
<defs>
<filter id="filter0_d_115_3506" x="0.113647" y="27" width="149.739" height="26.3068" filterUnits="userSpaceOnUse" color-interpolation-filters="sRGB">
<feFlood flood-opacity="0" result="BackgroundImageFix"/>
<feColorMatrix in="SourceAlpha" type="matrix" values="0 0 0 0 0 0 0 0 0 0 0 0 0 0 0 0 0 0 127 0" result="hardAlpha"/>
<feOffset dy="4"/>
<feGaussianBlur stdDeviation="2"/>
<feComposite in2="hardAlpha" operator="out"/>
<feColorMatrix type="matrix" values="0 0 0 0 0 0 0 0 0 0 0 0 0 0 0 0 0 0 0.25 0"/>
<feBlend mode="normal" in2="BackgroundImageFix" result="effect1_dropShadow_115_3506"/>
<feBlend mode="normal" in="SourceGraphic" in2="effect1_dropShadow_115_3506" result="shape"/>
</filter>
</defs>
</svg>
